<svg id="Слой_1" data-name="Слой 1" xmlns="http://www.w3.org/2000/svg" viewBox="0 0 341.74 109.94"><defs><style>.cls-1{fill:#ffdf00;}.cls-2{fill:#001641;}.cls-3{fill:#c7c9c8;}.cls-4{fill:#fff;}</style></defs><title>logon</title><path class="cls-1" d="M91.13,0H0L49.79,27H0l43.46,23.6-14.2,39H83.62a38.28,38.28,0,0,0,24-7.85H312.38l14.34-33.66h-9l2.82-6.62h6.86L341.74,7.85h-230A30.36,30.36,0,0,0,91.13,0Z"/><path class="cls-2" d="M324.75,37.51l10.93-25.66H110.16a25.59,25.59,0,0,0-7.25-5.19l-.21-.1-.91-.4L101.44,6l-.85-.33-.45-.16-.8-.26-.53-.16L98,4.88l-.6-.15-.73-.16L96,4.44l-.69-.12-.74-.1L94,4.15l-.85-.07-.55,0c-.42,0-.85,0-1.28,0H15.75L56.61,26.19,54.85,31H15.75L48.39,48.76,35,85.63H83.62C92.27,85.64,100,83,105.94,78l.23-.2H309.74l10.93-25.66h-9l6.23-14.62Z"/><path class="cls-3" d="M110.91,53.64c0-.07,0-.14,0-.21s0-.19,0-.29-.05-.42-.09-.62-.06-.33-.09-.5-.08-.4-.13-.6l-.11-.45v0c-.05-.2-.11-.39-.16-.58l-.06-.2-.09-.28c-.06-.19-.13-.38-.2-.57s-.11-.31-.17-.46-.16-.38-.25-.57l-.08-.18-.11-.25c-.1-.21-.21-.42-.32-.62l-.21-.39q-.25-.44-.52-.86l-.22-.32,0-.07-.36-.51-.05-.07-.25-.33-.36-.46-.26-.31-.07-.08-.39-.43-.18-.19-.42-.43c.29-.37.56-.74.83-1.13l.25-.37q.27-.4.53-.82l.26-.42q.32-.55.62-1.11c.1-.2.2-.39.29-.59l.29-.6q.16-.36.32-.72l.19-.46c.24-.6.46-1.22.66-1.84a26.63,26.63,0,0,0,.84-3.4c2.07-11.8-7.78-21.37-19.58-21.37H39.05l24.86,13.5h0L59,37H39.08L55.7,46,43.43,79.71H83.62c13.86,0,23.12-7.86,26.28-18.12l.08-.18a26.78,26.78,0,0,0,.73-3.08c.07-.4.13-.81.17-1.2,0-.13,0-.27,0-.4s0-.53.06-.79c0-.08,0-.15,0-.22s0-.16,0-.24c0-.23,0-.47,0-.7s0-.33,0-.49S110.93,53.86,110.91,53.64Zm-21.3,4.7A7.94,7.94,0,0,1,82.42,64H70l3.11-8.54L68,52.67H85.46C88.59,52.67,90.45,55.21,89.61,58.34Zm3.93-27A8,8,0,0,1,86.38,37h-6.5l1.48-4.06h0L68,25.62H89.38C92.52,25.62,94.38,28.16,93.54,31.3Zm75.38,5.35,0-.09c.08-.44.13-.87.17-1.3,0-.1,0-.2,0-.3a15.31,15.31,0,0,0,0-2.71c0-.11,0-.22,0-.34-.05-.4-.12-.79-.2-1.18,0-.18-.08-.37-.12-.55q-.13-.5-.28-1c-.07-.23-.15-.45-.23-.67s-.14-.35-.21-.53c-.15-.35-.31-.7-.48-1l-.18-.33q-.31-.58-.68-1.13l-.2-.3q-.37-.53-.77-1l-.27-.32q-.31-.36-.64-.7l-.55-.55-.49-.44q-.41-.35-.84-.68l-.4-.29c-.34-.24-.69-.48-1-.7l-.2-.12a18.44,18.44,0,0,0-9.48-2.6H119l10.27,5.58-.58,1.36h0l-7.17,16.82h-6.15l5,2.7-3.6,8.44a23.66,23.66,0,0,1-.22,6.7,31.9,31.9,0,0,1-5.08,12.5h14.31L131.7,58l-5.07-2.75h8.11l9.69,16.64h17.19l-10.1-17.32A22.1,22.1,0,0,0,168.86,36.9v0l.06-.22Zm-21.4,4.83h-8.79L141.08,36l-8.17-4.44h17.35c2.75,0,4.38,2.23,3.64,5a7,7,0,0,1-6.29,5Zm56.29-23.71h-30l10.14,5.51h0L171.88,51.62h-5.06l4.11,2.23-7.68,18h17.19l2.74-6.43,20.76-.06v0l2.36,6.47H223.5ZM189.08,51.62l5.32-12.48,4.54,12.48ZM326.72,17.77h0l-2.94,6.91-2.94,6.91H283.77l7.29,3.94h0l-1,2.38h21.25L305.4,51.73h-27l4.66,2.53L281.6,58h30.12L308.77,65h0l-2.94,6.91H258.38l13.69-32.12-3.38-1.84h4.17l7.24-17-5.8-3.15h52.44Zm-53.84,0-23.36,54.1H232.33l-19.69-54.1h17.19L241.74,50.5l11.32-26.56-10-6.17Z"/><path class="cls-4" d="M111,54.29c0,.16,0,.33,0,.49s0,.46,0,.7c0,.08,0,.16,0,.24s0,.15,0,.22c0,.26,0,.52-.06.79s0,.26,0,.4c0,.4-.1.8-.17,1.2h0a26.79,26.79,0,0,1-.73,3.08c-2.28,6-8,10.44-16.28,10.44H56.88l7.67-21.06,8.6,4.67L70,64H86.34c19.43,0,16.29-18,1.07-18H55.7L39.08,37H69.59l3.18-8.73,8.6,4.67h0L79.88,37h8.35c18.21,0,17.42-19.14,1.55-19.14H53.62L39.05,9.92H91.13c11.81,0,21.66,9.57,19.58,21.37a26.64,26.64,0,0,1-.84,3.4c-.2.62-.42,1.24-.66,1.84L109,37q-.15.36-.32.72l-.29.6c-.1.2-.19.4-.29.59q-.29.56-.62,1.11l-.26.42q-.26.42-.53.82l-.25.37c-.27.38-.54.76-.83,1.13l.42.43.18.19.39.43.07.08.26.31.36.46.25.33.05.07.36.51,0,.07.22.32q.27.42.52.86l.21.39c.11.21.22.41.32.62l.11.25.08.18c.08.19.17.38.25.57s.12.31.17.46.14.38.2.57l.09.28.06.2c.06.19.11.39.16.58v0l.11.45q.07.3.13.6t.09.5c0,.21.06.41.09.62s0,.19,0,.29,0,.14,0,.21S110.95,54.07,111,54.29Zm15.67.93L131.7,58l-5.92,13.89h-8.88L124,55.22Zm25.16-37.46H119l10.27,5.58-.58,1.36h21.93c7.13,0,10.72,3.72,11,8.77h0c-.21,6.79-7.34,8-15,8h-7.94L141.08,36l-7.21-3.92-4,9.48H115.37L128.1,48.4H154c.58,0,1.14,0,1.68-.09l.28,0q.77-.09,1.48-.24l.26-.06c.48-.11.95-.24,1.39-.39l0,0a13.86,13.86,0,0,0,1.29-.52l.13-.06c.41-.19.8-.4,1.17-.62l.13-.08a16.85,16.85,0,0,0,7.05-9.76C170.76,26.22,162.13,17.77,151.79,17.77Zm-6.58,37.46H143.5l9.71,16.64h8.41l-10.1-17.32A28.75,28.75,0,0,1,145.21,55.23Zm43.86-3.61h19l-2.94,6.91h-19l-5.68,13.34H172l6-14.16-11.23-6.09h13.83l9.86-23.15,3.88,10.67Zm14.73-33.85h-30l10.14,5.51h13.84l17.68,48.59h8Zm122.92,0-2.94,6.91h-28.1l-2.94,6.91H284.3l2.94-6.91H287l-12.73-6.91ZM281.6,58l1.48-3.8-4.66-2.53h5.74l2.94-6.9h21.23l2.94-6.91H290l1-2.38-6.86-3.7-2.59,6.09H268.68l12.73,6.91h-2.76L270.09,65h38.68L311.71,58ZM269,17.77H243.06l10,6.17h8.43L245.63,61.16h-8.12l4.24-10.67h0L229.83,17.77h-8.51L241,71.87h8.51l23.36-54.1H269Z"/><path class="cls-1" d="M127.54,109.94l-1.16-1.45V97.4L127.54,96h8l1.16,1.39v3h-2.3V98.31H129v9.31h5.45v-2h2.3v2.94l-1.16,1.43Zm10.66,0v-2.32h.87V98.31h-.87V96h10l1.16,1.39v4.08l-.91,1.43.91,1.39v4.23l-1.16,1.43Zm8.56-11.63h-5.1v3.42h5.1Zm0,5.74h-5.1v3.57h5.1Zm15.34,5.89h-4.37v-2.32h.87l-1.1-2.82h-3.24v2.82h.87v2.32H150.8v-2.32h.87V98.31h-.87V96h9.62l1.16,1.39v5.68l-1.66,1.31,1.31,3.24h.87ZM159,102.48V98.31h-4.73v4.17Zm9.49,1.93V102.1h2.59v2.32Zm8.38,5.52v-2.32h.87V98.31h-.87V96h10.7v4h-2.3V98.31h-4.95v3.4h4.17v-.48h2.32v3.28h-2.32V104h-4.17v3.59h4.95v-1.68h2.3v4Zm13.31,0L189,108.55v-2.72h2.59v1.8H197v-3.48l-6.94-.73L189,102.08V97.4L190.17,96h8.29l1.16,1.39V100H197V98.31H191.6v2.8l7.23.79.79,1.26v5.37l-1.16,1.41Zm15.18,0v-2.32h.87V98.31H203.3v2.07H201V96h13v4.39h-2.3V98.31h-2.88v9.31h.87v2.32Zm14.72,0v-7.05l1-1.12h7.21V98.31h-5.66v1.45h-2.59V97.38L221.23,96h8.52l1.16,1.41v5.43l-1.2,1.26h-7.05v3.54h5.6v-1.54h2.59v3.86Zm13.93,0-1.16-1.45V97.4L234,96h8.19l1.16,1.39v11.13l-1.16,1.43Zm6.92-11.63h-5.49v9.31h5.49Zm3.88,11.63v-2.32h.87V98.31h-.87V96.77l1.68-.77h1.78v11.63h.87v2.32Zm12.29,0v-2.32h.87V105.4h-7.77v-3L257,96h3.54v7.13h1.8v2.32h-1.8v2.22h.87v2.32Zm.87-11.69-5.37,4.83h5.37Z"/></svg>